<?xml version="1.0" encoding="utf-8"?>
<!-- Generator: Adobe Illustrator 16.0.0, SVG Export Plug-In . SVG Version: 6.00 Build 0)  -->
<!DOCTYPE svg PUBLIC "-//W3C//DTD SVG 1.1//EN" "http://www.w3.org/Graphics/SVG/1.1/DTD/svg11.dtd">
<svg version="1.1" id="Layer_1" xmlns="http://www.w3.org/2000/svg" xmlns:xlink="http://www.w3.org/1999/xlink" x="0px" y="0px"
	 width="39.25px" height="54.438px" viewBox="-4.628 -4.638 39.25 54.438" enable-background="new -4.628 -4.638 39.25 54.438"
	 xml:space="preserve">
<radialGradient id="SVGID_1_" cx="14.9971" cy="40.3616" r="19.2508" gradientTransform="matrix(1 0 0 0.4704 0 21.3754)" gradientUnits="userSpaceOnUse">
	<stop  offset="0" style="stop-color:#000000;stop-opacity:0.5"/>
	<stop  offset="1" style="stop-color:#000000;stop-opacity:0"/>
</radialGradient>
<ellipse fill="url(#SVGID_1_)" cx="14.997" cy="40.362" rx="19.625" ry="9.444"/>
<g>
	<g>
		<path fill="#00A4FF" d="M14.997,4.545c-4.211,0-7.625,3.391-7.625,7.573s3.413,7.57,7.625,7.57c4.212,0,7.623-3.39,7.623-7.57
			S19.209,4.545,14.997,4.545z M14.997-4.638c-9.318,0-16.874,7.503-16.874,16.757c0,9.254,16.874,28.243,16.874,28.243
			S31.87,21.372,31.87,12.118C31.87,2.865,24.314-4.638,14.997-4.638z M14.997,23.688c-6.434,0-11.649-5.18-11.649-11.569
			c0-6.39,5.217-11.57,11.649-11.57c6.432,0,11.648,5.181,11.648,11.57C26.648,18.508,21.431,23.688,14.997,23.688z"/>
	</g>
</g>
<g>
	<polygon fill="#FFFFFF" points="10.351,13.091 14.548,13.091 18.293,6.893 	"/>
	<polygon fill="#FFFFFF" points="12.067,16.918 19.157,11.386 15.411,11.386 	"/>
</g>
</svg>
